<?xml version="1.0" standalone="no"?>
<!DOCTYPE svg PUBLIC "-//W3C//DTD SVG 20010904//EN"
 "http://www.w3.org/TR/2001/REC-SVG-20010904/DTD/svg10.dtd">
<svg version="1.0" xmlns="http://www.w3.org/2000/svg"
 width="1187.000000pt" height="1280.000000pt" viewBox="0 0 1187.000000 1280.000000"
 preserveAspectRatio="xMidYMid meet">
<metadata>
Created by potrace 1.15, written by Peter Selinger 2001-2017
</metadata>
<g transform="translate(0.000000,1280.000000) scale(0.100000,-0.100000)"
fill="#ffffff" stroke="none">
<path d="M3182 10884 c-21 -15 -22 -20 -22 -200 l0 -185 -46 -20 c-70 -31
-264 -44 -470 -32 l-169 11 -165 92 c-176 99 -232 117 -263 85 -16 -15 -17
-233 -17 -3300 0 -2044 -3 -3292 -9 -3308 -7 -17 -6 -29 2 -40 7 -8 84 -63
172 -123 224 -151 2240 -1537 2353 -1617 131 -93 317 -161 509 -187 140 -19
374 -8 493 23 147 38 293 111 408 204 49 40 62 61 77 126 l11 48 201 -141
c161 -112 221 -148 300 -179 414 -163 832 -127 1168 101 88 60 122 101 131
160 4 21 11 41 15 44 5 3 62 -32 126 -78 289 -202 337 -227 543 -280 215 -56
515 -49 708 16 186 64 380 196 402 275 6 24 10 1201 10 3508 l0 3473 -22 14
c-13 8 -464 256 -1003 552 -539 295 -1155 633 -1368 750 -214 117 -397 216
-406 219 -10 3 -30 1 -45 -4 l-26 -11 0 -183 c0 -202 0 -202 -64 -227 -60 -22
-285 -33 -462 -22 l-169 10 -170 96 c-208 118 -251 124 -273 43 -7 -24 -12
-22 -297 134 -281 154 -330 174 -353 147 -5 -7 -12 -92 -14 -191 -5 -210 -5
-209 -113 -232 -75 -16 -434 -20 -531 -6 -37 5 -96 32 -218 100 -153 84 -171
92 -214 89 -43 -3 -48 -6 -57 -35 l-11 -32 -299 165 c-165 90 -307 164 -315
164 -9 0 -26 -7 -38 -16z"/>
</g>
</svg>
