<?xml version="1.0" standalone="no"?>
<!DOCTYPE svg PUBLIC "-//W3C//DTD SVG 20010904//EN"
 "http://www.w3.org/TR/2001/REC-SVG-20010904/DTD/svg10.dtd">
<svg version="1.0" xmlns="http://www.w3.org/2000/svg"
 width="1121.000000pt" height="1280.000000pt" viewBox="0 0 1121.000000 1280.000000"
 preserveAspectRatio="xMidYMid meet">
<g transform="translate(0.000000,1280.000000) scale(0.100000,-0.100000)"
fill="#ffffff" stroke="none">
<path d="M5227 12789 c-288 -13 -476 -47 -682 -124 -670 -251 -1143 -857
-1225 -1570 -5 -49 -10 -273 -10 -497 l0 -407 -57 -37 c-32 -20 -107 -72 -168
-115 -919 -652 -1553 -1644 -1749 -2739 -42 -236 -56 -387 -66 -730 -28 -947
-106 -1501 -311 -2212 -36 -126 -41 -156 -42 -248 0 -126 18 -203 74 -311 98
-188 286 -321 494 -348 50 -6 674 -14 1650 -21 864 -6 2191 -15 2950 -21 759
-5 1880 -11 2490 -12 1065 -2 1112 -1 1165 17 237 81 404 262 455 491 27 118
17 233 -38 455 -116 470 -208 964 -257 1377 -34 289 -40 388 -50 753 -5 195
-14 405 -20 465 -82 837 -397 1609 -925 2267 -310 387 -661 693 -1148 1003
-14 9 -17 61 -22 405 -7 422 -18 551 -61 722 -82 326 -239 608 -474 852 -305
316 -678 505 -1130 572 -133 20 -553 27 -843 13z m697 -1404 c201 -43 349
-184 401 -381 16 -63 21 -229 6 -238 -4 -3 -44 1 -88 9 -230 40 -365 50 -693
49 -337 0 -456 -9 -721 -54 -62 -11 -116 -17 -120 -14 -15 9 -10 176 6 239 54
206 229 364 437 394 35 4 207 9 383 10 246 0 336 -3 389 -14z"/>
<path d="M690 3242 c-146 -49 -284 -163 -342 -283 -41 -85 -314 -895 -334
-992 -16 -76 -16 -94 -5 -154 50 -255 169 -425 366 -523 158 -78 -7 -73 2115
-69 l1895 4 12 -110 c15 -135 33 -212 79 -331 143 -375 491 -666 894 -748 180
-36 252 -41 372 -22 322 50 526 147 735 349 198 191 326 444 354 702 6 50 13
108 15 131 l5 41 592 6 c326 4 1015 7 1532 8 517 1 1113 4 1325 8 383 7 385 8
467 35 151 49 282 157 359 292 54 96 89 240 81 330 -11 126 -40 317 -73 494
-20 102 -40 210 -46 240 -44 240 -215 418 -444 465 -53 10 -248 16 -834 25
-421 5 -1075 15 -1455 20 -379 5 -1018 14 -1420 20 -401 6 -1043 15 -1425 20
-382 5 -1028 14 -1435 20 -407 6 -1035 15 -1395 20 -360 5 -943 12 -1295 15
-605 5 -643 5 -695 -13z"/>
</g>
</svg>
